<svg xmlns="http://www.w3.org/2000/svg" version="1.1" xmlns:xlink="http://www.w3.org/1999/xlink" xmlns:svgjs="http://svgjs.com/svgjs" width="20" height="20"><svg xmlns="http://www.w3.org/2000/svg" height="20" width="20"><path d="M4.042 17.854q-.771-.208-1.23-.677-.458-.469-.666-1.219L15.958 2.146q.688.208 1.188.687.5.479.687 1.209Zm-2-4.166V9.854l7.812-7.812h3.834Zm0-6.438V4.708q0-1.125.77-1.895.771-.771 1.896-.771H7.25Zm10.5 10.708 5.416-5.416v2.75q0 1.125-.77 1.896-.771.77-1.896.77Zm-6.23 0L17.958 6.312v3.834l-7.812 7.812Z"/></svg><style>@media (prefers-color-scheme: light) { :root { filter: none; } }
@media (prefers-color-scheme: dark) { :root { filter: invert(100%); } }
</style></svg>